<?xml version="1.0" standalone="no"?>
<!DOCTYPE svg PUBLIC "-//W3C//DTD SVG 20010904//EN"
 "http://www.w3.org/TR/2001/REC-SVG-20010904/DTD/svg10.dtd">
<svg version="1.0" xmlns="http://www.w3.org/2000/svg"
 width="29.000000pt" height="53.000000pt" viewBox="0 0 29.000000 53.000000"
 preserveAspectRatio="xMidYMid meet">

<g transform="translate(0.000000,53.000000) scale(0.100000,-0.100000)"
fill="#000000" stroke="none">
<path d="M16 514 c-14 -13 -16 -50 -16 -253 0 -171 3 -240 12 -249 17 -17 249
-17 266 0 9 9 12 79 12 255 0 229 -1 243 -19 253 -11 5 -69 10 -130 10 -86 0
-113 -3 -125 -16z m57 -24 c4 -17 14 -20 72 -20 59 0 68 2 72 21 4 14 12 19
27 17 21 -3 21 -7 24 -246 l2 -243 -122 3 -123 3 -3 230 c-1 126 0 235 2 242
8 20 43 15 49 -7z m127 4 c0 -12 -10 -14 -52 -12 -74 4 -77 28 -4 28 44 0 56
-3 56 -16z"/>
<path d="M40 40 c0 -5 14 -10 30 -10 17 0 30 5 30 10 0 6 -13 10 -30 10 -16 0
-30 -4 -30 -10z"/>
<path d="M115 40 c4 -6 11 -8 16 -5 14 9 11 15 -7 15 -8 0 -12 -5 -9 -10z"/>
</g>
</svg>
